# xmcd
# 
# Track frame offsets:
#     150
#     18051
#     31926
#     46746
#     71372
#     88768
#     107821
#     131562
#     152149
# 
# Disc length: 2280
# 
# Revision: 0
# Processed by: cddbd v1.5.2PL0 Copyright (c) Steve Scherf et al.
# Submitted via: fre:ac v1.0.31
# 
DISCID=6608e609
DTITLE=Dead Can Dance - Spleen and Ideal
DYEAR=1984
DGENRE=Gothic Rock
TTITLE0=De Profundis (Out of the Depths of Sorrow)
TTITLE1=Ascension
TTITLE2=Circumradiant Dawn
TTITLE3=The Cardinal Sin
TTITLE4=Mesmerism
TTITLE5=Enigma of the Absolute
TTITLE6=Advent
TTITLE7=Avatar
TTITLE8=Indoctrination (A Design for Living)
EXTD=4AD Records, CAD 512 CD\n(P) 1985
EXTT0=
EXTT1=
EXTT2=
EXTT3=
EXTT4=
EXTT5=
EXTT6=
EXTT7=
EXTT8=
PLAYORDER=
